<svg id="visual" viewBox="0 0 900 600" width="900" height="600" xmlns="http://www.w3.org/2000/svg" xmlns:xlink="http://www.w3.org/1999/xlink" version="1.1"><rect x="0" y="0" width="900" height="600" fill="#ff9629"></rect><path d="M381 0L528 0L528 86L449 86L449 171L498 171L498 257L471 257L471 343L397 343L397 429L464 429L464 514L378 514L378 600L0 600L0 514L0 514L0 429L0 429L0 343L0 343L0 257L0 257L0 171L0 171L0 86L0 86L0 0L0 0Z" fill="#ff3629"></path><path d="M330 0L236 0L236 86L285 86L285 171L299 171L299 257L237 257L237 343L255 343L255 429L261 429L261 514L228 514L228 600L0 600L0 514L0 514L0 429L0 429L0 343L0 343L0 257L0 257L0 171L0 171L0 86L0 86L0 0L0 0Z" fill="#ff5b26"></path><path d="M94 0L101 0L101 86L218 86L218 171L110 171L110 257L210 257L210 343L180 343L180 429L207 429L207 514L95 514L95 600L0 600L0 514L0 514L0 429L0 429L0 343L0 343L0 257L0 257L0 171L0 171L0 86L0 86L0 0L0 0Z" fill="#ff7629"></path></svg>