<svg id="visual" viewBox="0 0 900 600" width="900" height="600" xmlns="http://www.w3.org/2000/svg" xmlns:xlink="http://www.w3.org/1999/xlink" version="1.1"><rect x="0" y="0" width="900" height="600" fill="#ff7629"></rect><path d="M0 371L21.5 376.5C43 382 86 393 128.8 398.3C171.7 403.7 214.3 403.3 257.2 398.3C300 393.3 343 383.7 385.8 389C428.7 394.3 471.3 414.7 514.2 418.5C557 422.3 600 409.7 642.8 404.7C685.7 399.7 728.3 402.3 771.2 401.5C814 400.7 857 396.3 878.5 394.2L900 392L900 601L878.5 601C857 601 814 601 771.2 601C728.3 601 685.7 601 642.8 601C600 601 557 601 514.2 601C471.3 601 428.7 601 385.8 601C343 601 300 601 257.2 601C214.3 601 171.7 601 128.8 601C86 601 43 601 21.5 601L0 601Z" fill="#c62368"></path><path d="M0 424L21.5 428.8C43 433.7 86 443.3 128.8 444.2C171.7 445 214.3 437 257.2 436.7C300 436.3 343 443.7 385.8 443.3C428.7 443 471.3 435 514.2 432.2C557 429.3 600 431.7 642.8 437.2C685.7 442.7 728.3 451.3 771.2 455.5C814 459.7 857 459.3 878.5 459.2L900 459L900 601L878.5 601C857 601 814 601 771.2 601C728.3 601 685.7 601 642.8 601C600 601 557 601 514.2 601C471.3 601 428.7 601 385.8 601C343 601 300 601 257.2 601C214.3 601 171.7 601 128.8 601C86 601 43 601 21.5 601L0 601Z" fill="#d53867"></path><path d="M0 499L21.5 488.7C43 478.3 86 457.7 128.8 450.7C171.7 443.7 214.3 450.3 257.2 456.7C300 463 343 469 385.8 474C428.7 479 471.3 483 514.2 482.3C557 481.7 600 476.3 642.8 479C685.7 481.7 728.3 492.3 771.2 488.7C814 485 857 467 878.5 458L900 449L900 601L878.5 601C857 601 814 601 771.2 601C728.3 601 685.7 601 642.8 601C600 601 557 601 514.2 601C471.3 601 428.7 601 385.8 601C343 601 300 601 257.2 601C214.3 601 171.7 601 128.8 601C86 601 43 601 21.5 601L0 601Z" fill="#e34c67"></path><path d="M0 492L21.5 500C43 508 86 524 128.8 522.7C171.7 521.3 214.3 502.7 257.2 502.2C300 501.7 343 519.3 385.8 525.8C428.7 532.3 471.3 527.7 514.2 526.2C557 524.7 600 526.3 642.8 528.5C685.7 530.7 728.3 533.3 771.2 532.8C814 532.3 857 528.7 878.5 526.8L900 525L900 601L878.5 601C857 601 814 601 771.2 601C728.3 601 685.7 601 642.8 601C600 601 557 601 514.2 601C471.3 601 428.7 601 385.8 601C343 601 300 601 257.2 601C214.3 601 171.7 601 128.8 601C86 601 43 601 21.5 601L0 601Z" fill="#ef5f67"></path><path d="M0 555L21.5 554C43 553 86 551 128.8 551.5C171.7 552 214.3 555 257.2 552.3C300 549.7 343 541.3 385.8 541.2C428.7 541 471.3 549 514.2 547.8C557 546.7 600 536.3 642.8 535.8C685.7 535.3 728.3 544.7 771.2 550.3C814 556 857 558 878.5 559L900 560L900 601L878.5 601C857 601 814 601 771.2 601C728.3 601 685.7 601 642.8 601C600 601 557 601 514.2 601C471.3 601 428.7 601 385.8 601C343 601 300 601 257.2 601C214.3 601 171.7 601 128.8 601C86 601 43 601 21.5 601L0 601Z" fill="#fa7268"></path></svg>