<svg id="visual" viewBox="0 0 900 600" width="900" height="600" xmlns="http://www.w3.org/2000/svg" xmlns:xlink="http://www.w3.org/1999/xlink" version="1.1"><g stroke-width="1" stroke-linejoin="bevel"><path d="M487.9 270L543.7 220L529.9 211Z" fill="#e80d14" stroke="#e80d14"></path><path d="M487.9 270L578.7 274L543.7 220Z" fill="#ff7629" stroke="#ff7629"></path><path d="M599.7 156L506.9 170L529.9 211Z" fill="#f6581d" stroke="#f6581d"></path><path d="M529.9 211L506.9 170L487.9 270Z" fill="#fb6823" stroke="#fb6823"></path><path d="M578.7 274L599.7 156L543.7 220Z" fill="#f96020" stroke="#f96020"></path><path d="M543.7 220L599.7 156L529.9 211Z" fill="#f4501b" stroke="#f4501b"></path><path d="M377.1 280L460.9 358L487.9 270Z" fill="#fb6823" stroke="#fb6823"></path><path d="M487.9 270L460.9 358L578.7 274Z" fill="#f6581d" stroke="#f6581d"></path><path d="M560.7 101L503.9 109L506.9 170Z" fill="#ef3d17" stroke="#ef3d17"></path><path d="M370.1 257L377.1 280L487.9 270Z" fill="#f4501b" stroke="#f4501b"></path><path d="M370.1 257L487.9 270L506.9 170Z" fill="#f6581d" stroke="#f6581d"></path><path d="M384.1 118L370.1 257L506.9 170Z" fill="#f24719" stroke="#f24719"></path><path d="M650.5 387L659.5 287L578.7 274Z" fill="#fd6f26" stroke="#fd6f26"></path><path d="M578.7 274L684.5 218L599.7 156Z" fill="#ed3216" stroke="#ed3216"></path><path d="M599.7 156L560.7 101L506.9 170Z" fill="#ff7629" stroke="#ff7629"></path><path d="M460.9 358L570.7 398L578.7 274Z" fill="#fb6823" stroke="#fb6823"></path><path d="M659.5 287L684.5 218L578.7 274Z" fill="#f6581d" stroke="#f6581d"></path><path d="M599.7 156L657.5 53L560.7 101Z" fill="#f24719" stroke="#f24719"></path><path d="M361.3 104L384.1 118L414.1 37Z" fill="#ef3d17" stroke="#ef3d17"></path><path d="M503.9 109L384.1 118L506.9 170Z" fill="#ef3d17" stroke="#ef3d17"></path><path d="M377.1 280L424.1 412L460.9 358Z" fill="#f96020" stroke="#f96020"></path><path d="M460.9 358L446.1 433L570.7 398Z" fill="#f4501b" stroke="#f4501b"></path><path d="M684.5 218L679.5 143L599.7 156Z" fill="#ef3d17" stroke="#ef3d17"></path><path d="M570.7 398L650.5 387L578.7 274Z" fill="#fd6f26" stroke="#fd6f26"></path><path d="M659.5 287L742.4 242L684.5 218Z" fill="#f6581d" stroke="#f6581d"></path><path d="M424.1 412L446.1 433L460.9 358Z" fill="#ed3216" stroke="#ed3216"></path><path d="M570.7 398L654.5 479L650.5 387Z" fill="#ef3d17" stroke="#ef3d17"></path><path d="M414.1 37L384.1 118L503.9 109Z" fill="#fb6823" stroke="#fb6823"></path><path d="M303.3 147L288.3 204L370.1 257Z" fill="#f4501b" stroke="#f4501b"></path><path d="M305.3 328L311.3 337L377.1 280Z" fill="#f4501b" stroke="#f4501b"></path><path d="M377.1 280L311.3 337L424.1 412Z" fill="#f96020" stroke="#f96020"></path><path d="M424.1 412L403.1 490L446.1 433Z" fill="#f24719" stroke="#f24719"></path><path d="M305.3 328L377.1 280L370.1 257Z" fill="#ef3d17" stroke="#ef3d17"></path><path d="M446.1 433L524.9 471L570.7 398Z" fill="#fb6823" stroke="#fb6823"></path><path d="M778.4 324L742.4 242L659.5 287Z" fill="#f96020" stroke="#f96020"></path><path d="M684.5 218L727.4 150L679.5 143Z" fill="#ff7629" stroke="#ff7629"></path><path d="M279.5 257L305.3 328L370.1 257Z" fill="#f6581d" stroke="#f6581d"></path><path d="M742.4 242L727.4 150L684.5 218Z" fill="#ed3216" stroke="#ed3216"></path><path d="M679.5 143L657.5 53L599.7 156Z" fill="#eb2315" stroke="#eb2315"></path><path d="M303.3 147L370.1 257L384.1 118Z" fill="#fb6823" stroke="#fb6823"></path><path d="M515.9 0L414.1 37L503.9 109Z" fill="#fb6823" stroke="#fb6823"></path><path d="M515.9 0L503.9 109L560.7 101Z" fill="#f96020" stroke="#f96020"></path><path d="M361.3 104L303.3 147L384.1 118Z" fill="#f24719" stroke="#f24719"></path><path d="M254.5 76L303.3 147L361.3 104Z" fill="#ef3d17" stroke="#ef3d17"></path><path d="M288.3 204L279.5 257L370.1 257Z" fill="#fd6f26" stroke="#fd6f26"></path><path d="M719.4 77L657.5 53L679.5 143Z" fill="#f6581d" stroke="#f6581d"></path><path d="M538.7 0L515.9 0L560.7 101Z" fill="#e80d14" stroke="#e80d14"></path><path d="M657.5 53L538.7 0L560.7 101Z" fill="#f24719" stroke="#f24719"></path><path d="M524.9 471L566.7 490L570.7 398Z" fill="#eb2315" stroke="#eb2315"></path><path d="M566.7 490L589.7 492L570.7 398Z" fill="#e80d14" stroke="#e80d14"></path><path d="M778.4 357L778.4 324L659.5 287Z" fill="#ff7629" stroke="#ff7629"></path><path d="M776.2 159L719.4 77L727.4 150Z" fill="#e80d14" stroke="#e80d14"></path><path d="M727.4 150L719.4 77L679.5 143Z" fill="#ef3d17" stroke="#ef3d17"></path><path d="M657.5 53L695.5 0L538.7 0Z" fill="#fb6823" stroke="#fb6823"></path><path d="M515.9 0L417.1 0L414.1 37Z" fill="#eb2315" stroke="#eb2315"></path><path d="M287.3 0L254.5 76L361.3 104Z" fill="#ef3d17" stroke="#ef3d17"></path><path d="M347.3 475L403.1 490L424.1 412Z" fill="#e80d14" stroke="#e80d14"></path><path d="M446.1 433L486.9 545L524.9 471Z" fill="#f4501b" stroke="#f4501b"></path><path d="M524.9 471L486.9 545L566.7 490Z" fill="#fd6f26" stroke="#fd6f26"></path><path d="M566.7 490L624.5 530L589.7 492Z" fill="#f4501b" stroke="#f4501b"></path><path d="M347.3 475L424.1 412L311.3 337Z" fill="#ed3216" stroke="#ed3216"></path><path d="M589.7 492L654.5 479L570.7 398Z" fill="#f4501b" stroke="#f4501b"></path><path d="M778.4 357L659.5 287L650.5 387Z" fill="#f4501b" stroke="#f4501b"></path><path d="M742.4 242L776.2 159L727.4 150Z" fill="#f96020" stroke="#f96020"></path><path d="M834.2 224L776.2 159L742.4 242Z" fill="#fb6823" stroke="#fb6823"></path><path d="M778.4 357L793.2 306L778.4 324Z" fill="#ff7629" stroke="#ff7629"></path><path d="M778.4 324L793.2 306L742.4 242Z" fill="#f6581d" stroke="#f6581d"></path><path d="M734.4 488L778.4 357L650.5 387Z" fill="#eb2315" stroke="#eb2315"></path><path d="M266.5 411L347.3 475L311.3 337Z" fill="#eb2315" stroke="#eb2315"></path><path d="M266.5 411L311.3 337L305.3 328Z" fill="#f96020" stroke="#f96020"></path><path d="M203.5 326L266.5 411L305.3 328Z" fill="#f4501b" stroke="#f4501b"></path><path d="M488.9 600L486.9 545L449.1 600Z" fill="#fb6823" stroke="#fb6823"></path><path d="M403.1 490L486.9 545L446.1 433Z" fill="#ff7629" stroke="#ff7629"></path><path d="M589.7 492L624.5 530L654.5 479Z" fill="#ff7629" stroke="#ff7629"></path><path d="M556.7 600L624.5 530L566.7 490Z" fill="#fb6823" stroke="#fb6823"></path><path d="M654.5 479L734.4 488L650.5 387Z" fill="#e80d14" stroke="#e80d14"></path><path d="M738.4 0L695.5 0L719.4 77Z" fill="#f96020" stroke="#f96020"></path><path d="M719.4 77L695.5 0L657.5 53Z" fill="#ef3d17" stroke="#ef3d17"></path><path d="M287.3 0L361.3 104L414.1 37Z" fill="#fb6823" stroke="#fb6823"></path><path d="M303.3 147L230.5 112L288.3 204Z" fill="#f6581d" stroke="#f6581d"></path><path d="M123.6 252L145.6 294L279.5 257Z" fill="#ff7629" stroke="#ff7629"></path><path d="M279.5 257L203.5 326L305.3 328Z" fill="#ed3216" stroke="#ed3216"></path><path d="M254.5 76L230.5 112L303.3 147Z" fill="#fd6f26" stroke="#fd6f26"></path><path d="M900 241L834.2 224L900 269Z" fill="#f24719" stroke="#f24719"></path><path d="M793.2 306L834.2 224L742.4 242Z" fill="#eb2315" stroke="#eb2315"></path><path d="M830.2 34L738.4 0L719.4 77Z" fill="#e80d14" stroke="#e80d14"></path><path d="M145.6 294L203.5 326L279.5 257Z" fill="#f24719" stroke="#f24719"></path><path d="M624.5 530L734.4 488L654.5 479Z" fill="#fb6823" stroke="#fb6823"></path><path d="M778.4 357L853.2 378L793.2 306Z" fill="#eb2315" stroke="#eb2315"></path><path d="M266.5 411L263.5 452L347.3 475Z" fill="#eb2315" stroke="#eb2315"></path><path d="M449.1 600L486.9 545L403.1 490Z" fill="#ff7629" stroke="#ff7629"></path><path d="M186.6 369L263.5 452L266.5 411Z" fill="#f24719" stroke="#f24719"></path><path d="M830.2 34L719.4 77L776.2 159Z" fill="#f24719" stroke="#f24719"></path><path d="M417.1 0L287.3 0L414.1 37Z" fill="#e80d14" stroke="#e80d14"></path><path d="M254.5 76L145.6 63L230.5 112Z" fill="#f24719" stroke="#f24719"></path><path d="M145.6 294L186.6 369L203.5 326Z" fill="#f4501b" stroke="#f4501b"></path><path d="M203.5 326L186.6 369L266.5 411Z" fill="#fd6f26" stroke="#fd6f26"></path><path d="M449.1 600L403.1 490L348.3 600Z" fill="#f4501b" stroke="#f4501b"></path><path d="M486.9 545L556.7 600L566.7 490Z" fill="#fb6823" stroke="#fb6823"></path><path d="M752.4 600L778.4 497L734.4 488Z" fill="#f24719" stroke="#f24719"></path><path d="M488.9 600L556.7 600L486.9 545Z" fill="#fb6823" stroke="#fb6823"></path><path d="M315.3 546L403.1 490L347.3 475Z" fill="#eb2315" stroke="#eb2315"></path><path d="M823.2 461L853.2 378L778.4 357Z" fill="#fb6823" stroke="#fb6823"></path><path d="M264.5 510L347.3 475L263.5 452Z" fill="#ef3d17" stroke="#ef3d17"></path><path d="M264.5 510L315.3 546L347.3 475Z" fill="#ef3d17" stroke="#ef3d17"></path><path d="M752.4 600L734.4 488L624.5 530Z" fill="#ef3d17" stroke="#ef3d17"></path><path d="M734.4 488L823.2 461L778.4 357Z" fill="#f6581d" stroke="#f6581d"></path><path d="M143.6 482L264.5 510L263.5 452Z" fill="#f4501b" stroke="#f4501b"></path><path d="M287.3 0L242.5 0L254.5 76Z" fill="#f96020" stroke="#f96020"></path><path d="M154.6 147L279.5 257L288.3 204Z" fill="#f24719" stroke="#f24719"></path><path d="M556.7 600L627.5 600L624.5 530Z" fill="#f4501b" stroke="#f4501b"></path><path d="M778.4 497L823.2 461L734.4 488Z" fill="#ff7629" stroke="#ff7629"></path><path d="M154.6 147L288.3 204L230.5 112Z" fill="#eb2315" stroke="#eb2315"></path><path d="M145.6 63L154.6 147L230.5 112Z" fill="#f4501b" stroke="#f4501b"></path><path d="M900 93L830.2 34L776.2 159Z" fill="#f4501b" stroke="#f4501b"></path><path d="M900 163L776.2 159L834.2 224Z" fill="#ed3216" stroke="#ed3216"></path><path d="M900 269L834.2 224L793.2 306Z" fill="#fd6f26" stroke="#fd6f26"></path><path d="M853.2 378L900 269L793.2 306Z" fill="#e80d14" stroke="#e80d14"></path><path d="M900 404L900 269L853.2 378Z" fill="#f96020" stroke="#f96020"></path><path d="M262.5 600L348.3 600L315.3 546Z" fill="#f24719" stroke="#f24719"></path><path d="M315.3 546L348.3 600L403.1 490Z" fill="#ef3d17" stroke="#ef3d17"></path><path d="M900 241L900 163L834.2 224Z" fill="#f6581d" stroke="#f6581d"></path><path d="M154.6 147L123.6 252L279.5 257Z" fill="#eb2315" stroke="#eb2315"></path><path d="M900 0L840.2 0L830.2 34Z" fill="#ef3d17" stroke="#ef3d17"></path><path d="M830.2 34L840.2 0L738.4 0Z" fill="#ff7629" stroke="#ff7629"></path><path d="M900 163L900 93L776.2 159Z" fill="#eb2315" stroke="#eb2315"></path><path d="M242.5 0L145.6 63L254.5 76Z" fill="#f4501b" stroke="#f4501b"></path><path d="M154.6 147L79.8 149L123.6 252Z" fill="#ff7629" stroke="#ff7629"></path><path d="M900 476L900 404L823.2 461Z" fill="#f96020" stroke="#f96020"></path><path d="M823.2 461L900 404L853.2 378Z" fill="#eb2315" stroke="#eb2315"></path><path d="M627.5 600L752.4 600L624.5 530Z" fill="#eb2315" stroke="#eb2315"></path><path d="M858.2 552L900 476L823.2 461Z" fill="#fb6823" stroke="#fb6823"></path><path d="M66.8 257L145.6 294L123.6 252Z" fill="#f6581d" stroke="#f6581d"></path><path d="M66.8 257L93.8 341L145.6 294Z" fill="#e80d14" stroke="#e80d14"></path><path d="M145.6 294L93.8 341L186.6 369Z" fill="#ff7629" stroke="#ff7629"></path><path d="M186.6 369L143.6 482L263.5 452Z" fill="#f96020" stroke="#f96020"></path><path d="M264.5 510L262.5 600L315.3 546Z" fill="#fb6823" stroke="#fb6823"></path><path d="M142.6 497L262.5 600L264.5 510Z" fill="#eb2315" stroke="#eb2315"></path><path d="M78.8 411L143.6 482L186.6 369Z" fill="#ed3216" stroke="#ed3216"></path><path d="M858.2 552L823.2 461L778.4 497Z" fill="#fd6f26" stroke="#fd6f26"></path><path d="M145.6 63L79.8 149L154.6 147Z" fill="#ed3216" stroke="#ed3216"></path><path d="M79.8 149L66.8 257L123.6 252Z" fill="#ef3d17" stroke="#ef3d17"></path><path d="M90.8 492L142.6 497L143.6 482Z" fill="#fd6f26" stroke="#fd6f26"></path><path d="M143.6 482L142.6 497L264.5 510Z" fill="#fb6823" stroke="#fb6823"></path><path d="M78.8 411L186.6 369L93.8 341Z" fill="#ff7629" stroke="#ff7629"></path><path d="M242.5 0L134.6 0L145.6 63Z" fill="#f24719" stroke="#f24719"></path><path d="M145.6 63L82.8 53L79.8 149Z" fill="#ed3216" stroke="#ed3216"></path><path d="M900 93L900 0L830.2 34Z" fill="#ed3216" stroke="#ed3216"></path><path d="M817.2 600L858.2 552L778.4 497Z" fill="#e80d14" stroke="#e80d14"></path><path d="M752.4 600L817.2 600L778.4 497Z" fill="#eb2315" stroke="#eb2315"></path><path d="M0 380L78.8 411L93.8 341Z" fill="#f4501b" stroke="#f4501b"></path><path d="M106.8 0L82.8 53L145.6 63Z" fill="#ed3216" stroke="#ed3216"></path><path d="M0 166L0 254L66.8 257Z" fill="#f24719" stroke="#f24719"></path><path d="M134.6 0L106.8 0L145.6 63Z" fill="#f24719" stroke="#f24719"></path><path d="M900 600L900 534L858.2 552Z" fill="#fd6f26" stroke="#fd6f26"></path><path d="M858.2 552L900 534L900 476Z" fill="#eb2315" stroke="#eb2315"></path><path d="M78.8 411L90.8 492L143.6 482Z" fill="#fb6823" stroke="#fb6823"></path><path d="M142.6 497L131.6 600L262.5 600Z" fill="#ef3d17" stroke="#ef3d17"></path><path d="M66.8 257L0 293L93.8 341Z" fill="#ef3d17" stroke="#ef3d17"></path><path d="M78.8 411L0 484L90.8 492Z" fill="#ef3d17" stroke="#ef3d17"></path><path d="M0 166L66.8 257L79.8 149Z" fill="#f96020" stroke="#f96020"></path><path d="M0 254L0 293L66.8 257Z" fill="#e80d14" stroke="#e80d14"></path><path d="M817.2 600L900 600L858.2 552Z" fill="#f24719" stroke="#f24719"></path><path d="M0 55L79.8 149L82.8 53Z" fill="#eb2315" stroke="#eb2315"></path><path d="M0 55L0 166L79.8 149Z" fill="#f6581d" stroke="#f6581d"></path><path d="M106.8 600L142.6 497L90.8 492Z" fill="#f96020" stroke="#f96020"></path><path d="M106.8 600L131.6 600L142.6 497Z" fill="#f24719" stroke="#f24719"></path><path d="M0 293L0 380L93.8 341Z" fill="#e80d14" stroke="#e80d14"></path><path d="M54.8 547L106.8 600L90.8 492Z" fill="#f24719" stroke="#f24719"></path><path d="M0 0L0 55L82.8 53Z" fill="#ff7629" stroke="#ff7629"></path><path d="M0 492L54.8 547L90.8 492Z" fill="#ef3d17" stroke="#ef3d17"></path><path d="M0 380L0 484L78.8 411Z" fill="#f96020" stroke="#f96020"></path><path d="M0 484L0 492L90.8 492Z" fill="#f4501b" stroke="#f4501b"></path><path d="M54.8 547L0 600L106.8 600Z" fill="#ef3d17" stroke="#ef3d17"></path><path d="M106.8 0L0 0L82.8 53Z" fill="#fd6f26" stroke="#fd6f26"></path><path d="M0 492L0 600L54.8 547Z" fill="#ff7629" stroke="#ff7629"></path></g></svg>