<svg id="visual" viewBox="0 0 900 600" width="900" height="600" xmlns="http://www.w3.org/2000/svg" xmlns:xlink="http://www.w3.org/1999/xlink" version="1.1"><path d="M0 157L13.7 163C27.3 169 54.7 181 82 183C109.3 185 136.7 177 163.8 176C191 175 218 181 245.2 192C272.3 203 299.7 219 327 220C354.3 221 381.7 207 409 187C436.3 167 463.7 141 491 124C518.3 107 545.7 99 573 94C600.3 89 627.7 87 654.8 98C682 109 709 133 736.2 155C763.3 177 790.7 197 818 211C845.3 225 872.7 233 886.3 237L900 241L900 0L886.3 0C872.7 0 845.3 0 818 0C790.7 0 763.3 0 736.2 0C709 0 682 0 654.8 0C627.7 0 600.3 0 573 0C545.7 0 518.3 0 491 0C463.7 0 436.3 0 409 0C381.7 0 354.3 0 327 0C299.7 0 272.3 0 245.2 0C218 0 191 0 163.8 0C136.7 0 109.3 0 82 0C54.7 0 27.3 0 13.7 0L0 0Z" fill="#ffa36a"></path><path d="M0 247L13.7 256C27.3 265 54.7 283 82 282C109.3 281 136.7 261 163.8 256C191 251 218 261 245.2 270C272.3 279 299.7 287 327 282C354.3 277 381.7 259 409 240C436.3 221 463.7 201 491 184C518.3 167 545.7 153 573 155C600.3 157 627.7 175 654.8 189C682 203 709 213 736.2 237C763.3 261 790.7 299 818 315C845.3 331 872.7 325 886.3 322L900 319L900 239L886.3 235C872.7 231 845.3 223 818 209C790.7 195 763.3 175 736.2 153C709 131 682 107 654.8 96C627.7 85 600.3 87 573 92C545.7 97 518.3 105 491 122C463.7 139 436.3 165 409 185C381.7 205 354.3 219 327 218C299.7 217 272.3 201 245.2 190C218 179 191 173 163.8 174C136.7 175 109.3 183 82 181C54.7 179 27.3 167 13.7 161L0 155Z" fill="#ff8d4a"></path><path d="M0 343L13.7 342C27.3 341 54.7 339 82 328C109.3 317 136.7 297 163.8 294C191 291 218 305 245.2 321C272.3 337 299.7 355 327 355C354.3 355 381.7 337 409 315C436.3 293 463.7 267 491 247C518.3 227 545.7 213 573 217C600.3 221 627.7 243 654.8 255C682 267 709 269 736.2 291C763.3 313 790.7 355 818 376C845.3 397 872.7 397 886.3 397L900 397L900 317L886.3 320C872.7 323 845.3 329 818 313C790.7 297 763.3 259 736.2 235C709 211 682 201 654.8 187C627.7 173 600.3 155 573 153C545.7 151 518.3 165 491 182C463.7 199 436.3 219 409 238C381.7 257 354.3 275 327 280C299.7 285 272.3 277 245.2 268C218 259 191 249 163.8 254C136.7 259 109.3 279 82 280C54.7 281 27.3 263 13.7 254L0 245Z" fill="#ff7629"></path><path d="M0 481L13.7 485C27.3 489 54.7 497 82 495C109.3 493 136.7 481 163.8 476C191 471 218 473 245.2 477C272.3 481 299.7 487 327 491C354.3 495 381.7 497 409 493C436.3 489 463.7 479 491 467C518.3 455 545.7 441 573 442C600.3 443 627.7 459 654.8 476C682 493 709 511 736.2 513C763.3 515 790.7 501 818 501C845.3 501 872.7 515 886.3 522L900 529L900 395L886.3 395C872.7 395 845.3 395 818 374C790.7 353 763.3 311 736.2 289C709 267 682 265 654.8 253C627.7 241 600.3 219 573 215C545.7 211 518.3 225 491 245C463.7 265 436.3 291 409 313C381.7 335 354.3 353 327 353C299.7 353 272.3 335 245.2 319C218 303 191 289 163.8 292C136.7 295 109.3 315 82 326C54.7 337 27.3 339 13.7 340L0 341Z" fill="#df6523"></path><path d="M0 601L13.7 601C27.3 601 54.7 601 82 601C109.3 601 136.7 601 163.8 601C191 601 218 601 245.2 601C272.3 601 299.7 601 327 601C354.3 601 381.7 601 409 601C436.3 601 463.7 601 491 601C518.3 601 545.7 601 573 601C600.3 601 627.7 601 654.8 601C682 601 709 601 736.2 601C763.3 601 790.7 601 818 601C845.3 601 872.7 601 886.3 601L900 601L900 527L886.3 520C872.7 513 845.3 499 818 499C790.7 499 763.3 513 736.2 511C709 509 682 491 654.8 474C627.7 457 600.3 441 573 440C545.7 439 518.3 453 491 465C463.7 477 436.3 487 409 491C381.7 495 354.3 493 327 489C299.7 485 272.3 479 245.2 475C218 471 191 469 163.8 474C136.7 479 109.3 491 82 493C54.7 495 27.3 487 13.7 483L0 479Z" fill="#bf551d"></path></svg>